<svg width="32" height="32" viewBox="0 0 32 32" fill="none" xmlns="http://www.w3.org/2000/svg">
<path d="M28.9101 10.5931C28.2075 8.91626 27.1854 7.39209 25.9007 6.10556C24.6198 4.81681 23.0982 3.79218 21.4225 3.08983C19.7058 2.36683 17.8613 1.99623 15.9985 2.00003H15.9359C14.0413 2.00942 12.2093 2.38522 10.4838 3.12427C8.82239 3.83383 7.31515 4.86028 6.04631 6.14627C4.77403 7.42989 3.76359 8.94874 3.07128 10.6182C2.35264 12.3542 1.98849 14.2165 2.00028 16.0954C2.00967 18.2687 2.52952 20.4264 3.50031 22.3554V27.1155C3.50031 27.9109 4.14542 28.556 4.93772 28.556H9.69149C11.6295 29.534 13.7682 30.0485 15.939 30.0592H16.0048C17.8775 30.0592 19.6907 29.6959 21.4005 28.985C23.0679 28.2911 24.5837 27.2784 25.8631 26.0038C27.1533 24.7229 28.1679 23.226 28.8788 21.5569C29.6147 19.8282 29.9905 17.99 29.9999 16.0922C30.0062 14.1851 29.6367 12.3343 28.9101 10.5931ZM9.74786 17.5328C8.92112 17.5328 8.24782 16.8595 8.24782 16.0296C8.24782 15.1997 8.92112 14.5264 9.74786 14.5264C10.5746 14.5264 11.2479 15.1997 11.2479 16.0296C11.2479 16.8595 10.5777 17.5328 9.74786 17.5328ZM15.9985 17.5328C15.1718 17.5328 14.4985 16.8595 14.4985 16.0296C14.4985 15.1997 15.1718 14.5264 15.9985 14.5264C16.8253 14.5264 17.4986 15.1997 17.4986 16.0296C17.4986 16.8595 16.8253 17.5328 15.9985 17.5328ZM22.2492 17.5328C21.4225 17.5328 20.7492 16.8595 20.7492 16.0296C20.7492 15.1997 21.4225 14.5264 22.2492 14.5264C23.076 14.5264 23.7492 15.1997 23.7492 16.0296C23.7492 16.8595 23.076 17.5328 22.2492 17.5328Z" fill="#404040"/>
</svg>
