<svg width="32" height="32" viewBox="0 0 32 32" fill="none" xmlns="http://www.w3.org/2000/svg">
<path d="M15.9993 2.66675C23.3633 2.66675 29.3327 8.63608 29.3327 16.0001C29.3327 23.3641 23.3633 29.3334 15.9993 29.3334H5.33268C4.62544 29.3334 3.94716 29.0525 3.44706 28.5524C2.94697 28.0523 2.66602 27.374 2.66602 26.6667V16.0001C2.66602 8.63608 8.63535 2.66675 15.9993 2.66675Z" fill="#404040"/>
<path d="M19.9993 13.3333H11.9993C11.6595 13.3336 11.3326 13.4638 11.0855 13.697C10.8384 13.9303 10.6897 14.2492 10.6698 14.5884C10.6499 14.9277 10.7602 15.2618 10.9784 15.5224C11.1965 15.783 11.5059 15.9504 11.8433 15.9906L11.9993 15.9999H19.9993C20.3392 15.9995 20.6661 15.8694 20.9132 15.6361C21.1603 15.4028 21.309 15.084 21.3289 14.7447C21.3488 14.4055 21.2385 14.0714 21.0203 13.8108C20.8022 13.5502 20.4928 13.3827 20.1553 13.3426L19.9993 13.3333ZM15.9993 18.6666H11.9993C11.6457 18.6666 11.3066 18.8071 11.0565 19.0571C10.8065 19.3072 10.666 19.6463 10.666 19.9999C10.666 20.3535 10.8065 20.6927 11.0565 20.9427C11.3066 21.1928 11.6457 21.3333 11.9993 21.3333H15.9993C16.353 21.3333 16.6921 21.1928 16.9422 20.9427C17.1922 20.6927 17.3327 20.3535 17.3327 19.9999C17.3327 19.6463 17.1922 19.3072 16.9422 19.0571C16.6921 18.8071 16.353 18.6666 15.9993 18.6666Z" fill="#DBDBDB"/>
</svg>
