<svg width="32" height="32" viewBox="0 0 32 32" fill="none" xmlns="http://www.w3.org/2000/svg">
<path d="M16.0009 2.66675C13.6852 2.66615 11.4094 3.26863 9.39735 4.41487C7.38532 5.56111 5.70651 7.21159 4.52619 9.20382C3.34587 11.196 2.70474 13.4613 2.66594 15.7766C2.62713 18.0919 3.19197 20.3774 4.30486 22.4081L2.7262 27.6001C2.65576 27.8313 2.64951 28.0773 2.7081 28.3118C2.7667 28.5463 2.88794 28.7605 3.05886 28.9314C3.22978 29.1023 3.44394 29.2236 3.67845 29.2822C3.91295 29.3408 4.15897 29.3345 4.3902 29.2641L9.57686 27.6854C11.3587 28.6645 13.3409 29.2232 15.3718 29.3187C17.4027 29.4142 19.4285 29.044 21.2944 28.2363C23.1603 27.4287 24.8167 26.2051 26.1371 24.659C27.4574 23.1129 28.4067 21.2854 28.9124 19.3161C29.418 17.3468 29.4666 15.288 29.0545 13.2971C28.6423 11.3061 27.7803 9.43583 26.5343 7.82919C25.2884 6.22254 23.6915 4.92211 21.8658 4.02735C20.0401 3.13258 18.034 2.66719 16.0009 2.66675Z" fill="#404040"/>
</svg>
