<svg width="41" height="41" viewBox="0 0 41 41" fill="none" xmlns="http://www.w3.org/2000/svg">
<path d="M10.3458 29.9099C7.88092 27.3192 6.47542 23.8994 6.40606 20.3241C6.33671 16.7489 7.60852 13.2772 9.97104 10.5928C12.3336 7.90839 15.6155 6.20584 19.1707 5.82044C22.7258 5.43504 26.2964 6.39472 29.1793 8.51047L25.7927 13.1249C24.063 11.8555 21.9206 11.2797 19.7876 11.5109C17.6545 11.7422 15.6853 12.7637 14.2678 14.3743C12.8503 15.985 12.0872 18.068 12.1288 20.2131C12.1704 22.3583 12.0798 24.2159 13.5587 25.7704L10.3458 29.9099Z" fill="#A3A3A3"/>
<path d="M29.1676 31.5897C26.6967 33.4 23.7102 34.3696 20.6473 34.356C17.5843 34.3424 14.6065 33.3464 12.1518 31.5143L15.5754 26.9273C17.0482 28.0265 18.8349 28.6241 20.6726 28.6323C22.5104 28.6404 24.3023 28.0586 25.7848 26.9725L29.1676 31.5897Z" fill="#404040"/>
<circle cx="20.7121" cy="20.0466" r="5.72381" fill="#404040"/>
</svg>
