<svg width="24" height="24" viewBox="0 0 24 24" fill="none" xmlns="http://www.w3.org/2000/svg">
<path d="M7.26316 17.6842V15.7895M12 17.6842V14.8421M16.7368 17.6842V12.9474M3 12C3 7.75768 3 5.63558 4.31779 4.31779C5.63558 3 7.75674 3 12 3C16.2423 3 18.3644 3 19.6822 4.31779C21 5.63558 21 7.75674 21 12C21 16.2423 21 18.3644 19.6822 19.6822C18.3644 21 16.2433 21 12 21C7.75768 21 5.63558 21 4.31779 19.6822C3 18.3644 3 16.2433 3 12Z" stroke="#7C7C7C" stroke-width="1.5" stroke-linecap="round" stroke-linejoin="round"/>
<path d="M6.30811 11.5132C8.34968 11.5814 12.9795 11.2735 15.6132 7.09376M13.8871 6.58881L15.6643 6.30271C15.8803 6.27523 16.1986 6.44671 16.2773 6.65039L16.7462 8.20218" stroke="#7C7C7C" stroke-width="1.5" stroke-linecap="round" stroke-linejoin="round"/>
</svg>
