<svg width="24" height="24" viewBox="0 0 24 24" fill="none" xmlns="http://www.w3.org/2000/svg">
<path d="M9 1.5C6.10875 1.5 3.75 3.85875 3.75 6.75C3.75 8.5575 4.6725 10.1625 6.0705 11.1097C3.39525 12.2572 1.5 14.9122 1.5 18H3C3 14.6775 5.6775 12 9 12C10.0312 12 10.992 12.27 11.8358 12.7267C10.9717 13.7945 10.5002 15.1264 10.5 16.5C10.5 19.8045 13.1955 22.5 16.5 22.5C19.8045 22.5 22.5 19.8045 22.5 16.5C22.5 13.1955 19.8045 10.5 16.5 10.5C15.236 10.5009 14.0049 10.9029 12.984 11.6483C12.6473 11.441 12.2947 11.2607 11.9295 11.109C12.6432 10.6275 13.2279 9.97838 13.6325 9.21843C14.037 8.45848 14.2491 7.61092 14.25 6.75C14.25 3.85875 11.8912 1.5 9 1.5ZM9 3C11.0798 3 12.75 4.67025 12.75 6.75C12.75 8.82975 11.0798 10.5 9 10.5C6.92025 10.5 5.25 8.82975 5.25 6.75C5.25 4.67025 6.92025 3 9 3ZM16.5 12C18.993 12 21 14.007 21 16.5C21 18.993 18.993 21 16.5 21C14.007 21 12 18.993 12 16.5C12 14.007 14.007 12 16.5 12ZM18.9608 14.4608L16.5 16.9222L14.7892 15.2108L13.7108 16.2892L15.9608 18.5392L16.5 19.0545L17.0392 18.5392L20.0392 15.5392L18.9608 14.4608Z" fill="#7C7C7C"/>
</svg>
