<svg width="24" height="24" viewBox="0 0 24 24" fill="none" xmlns="http://www.w3.org/2000/svg">
<path d="M20.3332 12H15.3332L13.6665 14.5H10.3332L8.6665 12H3.6665" stroke="#7C7C7C" stroke-width="1.66667" stroke-linecap="round" stroke-linejoin="round"/>
<path d="M6.5415 6.2585L3.6665 12.0002V17.0002C3.6665 17.4422 3.8421 17.8661 4.15466 18.1787C4.46722 18.4912 4.89114 18.6668 5.33317 18.6668H18.6665C19.1085 18.6668 19.5325 18.4912 19.845 18.1787C20.1576 17.8661 20.3332 17.4422 20.3332 17.0002V12.0002L17.4582 6.2585C17.3202 5.98082 17.1075 5.74714 16.844 5.58373C16.5805 5.42032 16.2766 5.33366 15.9665 5.3335H8.03317C7.7231 5.33366 7.41922 5.42032 7.15571 5.58373C6.89219 5.74714 6.67948 5.98082 6.5415 6.2585Z" stroke="#7C7C7C" stroke-width="1.66667" stroke-linecap="round" stroke-linejoin="round"/>
</svg>
