<svg width="25" height="24" viewBox="0 0 25 24" fill="none" xmlns="http://www.w3.org/2000/svg">
<path d="M18 5C18.3978 5 18.7794 5.15804 19.0607 5.43934C19.342 5.72064 19.5 6.10218 19.5 6.5C19.5 6.89782 19.342 7.27936 19.0607 7.56066C18.7794 7.84196 18.3978 8 18 8C17.6022 8 17.2206 7.84196 16.9393 7.56066C16.658 7.27936 16.5 6.89782 16.5 6.5C16.5 6.10218 16.658 5.72064 16.9393 5.43934C17.2206 5.15804 17.6022 5 18 5Z" stroke="#404040" stroke-width="1.5" stroke-linecap="round" stroke-linejoin="round"/>
<path d="M3.27389 11.1445C2.27089 12.2645 2.24989 13.9545 3.16989 15.1445C4.9569 17.4643 7.0361 19.5435 9.35589 21.3305C10.5459 22.2505 12.2359 22.2295 13.3559 21.2265C16.3835 18.5183 19.2284 15.6126 21.8719 12.5285C22.1388 12.2217 22.3031 11.8392 22.3419 11.4345C22.5059 9.63847 22.8449 4.46447 21.4399 3.06047C20.0349 1.65647 14.8619 1.99447 13.0659 2.15947C12.6611 2.19825 12.2786 2.36258 11.9719 2.62947C8.88776 5.27268 5.98207 8.11724 3.27389 11.1445Z" stroke="#404040" stroke-width="1.5" stroke-linecap="round" stroke-linejoin="round"/>
<path d="M14.2878 12.3673C14.3098 11.9653 14.4218 11.2323 13.8118 10.6743M13.8118 10.6743C13.5791 10.4721 13.308 10.3187 13.0148 10.2233C11.7578 9.78033 10.2148 11.2623 11.3068 12.6193C11.8938 13.3493 12.3468 13.5733 12.3028 14.4013C12.2728 14.9833 11.7008 15.5923 10.9468 15.8243C10.2918 16.0263 9.56884 15.7593 9.11184 15.2483C8.55284 14.6243 8.60984 14.0363 8.60484 13.7803M13.8118 10.6743L14.4998 9.98633M9.15984 15.3263L8.50684 15.9793" stroke="#404040" stroke-width="1.5" stroke-linecap="round" stroke-linejoin="round"/>
</svg>
