<svg width="32" height="32" viewBox="0 0 32 32" fill="none" xmlns="http://www.w3.org/2000/svg">
<g clip-path="url(#clip0_296_5812)">
<path d="M3.2 0C1.43147 0 0 1.42933 0 3.2V22.3872C0 24.1557 1.43147 25.5851 3.2 25.5851H11.1637L15.1125 31.5051C15.2099 31.6512 15.3419 31.7709 15.4967 31.8538C15.6515 31.9366 15.8244 31.98 16 31.98C16.1756 31.98 16.3485 31.9366 16.5033 31.8538C16.6581 31.7709 16.7901 31.6512 16.8875 31.5051L20.8363 25.5851H28.8C30.5685 25.5851 32 24.1557 32 22.3851V3.2C32 1.42933 30.5685 0 28.8 0H3.2Z" fill="#404040"/>
</g>
<defs>
<clipPath id="clip0_296_5812">
<rect width="32" height="32" fill="white"/>
</clipPath>
</defs>
</svg>
